# xmcd
#
# Track frame offsets:
#       150
#       15494
#       28988
#       45701
#       60851
#       76752
#       89745
#       103554
#       119777
#       132483
#       147359
#       164724
#       178467
#
# Disc length: 2552 seconds
#
# Revision: 0
# Processed by: cddbd v1.5PL3 Copyright (c) Steve Scherf et al.
# Submitted via: WhereIsIt 3.54
#
DISCID=bc09f60d
DTITLE=Joni Harms - Let´s Put The Western Back In The Country
DYEAR=2004
DGENRE=Country
TTITLE0=Let´s Put The Western Back In the Country
TTITLE1=I´ve Got A Feelin´ For You
TTITLE2=Murphy´s Law
TTITLE3=Coyote Cafe
TTITLE4=A Little Bit Of Love
TTITLE5=Cowboy Up
TTITLE6=Louisiana Hot Sauce
TTITLE7=Love Never Hurt Nobody
TTITLE8=Oregon trail
TTITLE9=The Wind
TTITLE10=Shape Of My Heart
TTITLE11=We Work It Out
TTITLE12=I Still Do
EXTD=
EXTT0=
EXTT1=
EXTT2=
EXTT3=
EXTT4=
EXTT5=
EXTT6=
EXTT7=
EXTT8=
EXTT9=
EXTT10=
EXTT11=
EXTT12=
PLAYORDER=
